<svg width="64" height="64" viewBox="0 0 64 64" fill="none" xmlns="http://www.w3.org/2000/svg">
<rect width="64" height="64" rx="8" fill="black"/>
<path d="M53.5651 43.2C52.2051 43.2 51.1784 42.9066 50.4851 42.32C49.8184 41.7333 49.4851 40.8266 49.4851 39.6C49.4851 38.3466 49.8184 37.4266 50.4851 36.84C51.1784 36.2533 52.2051 35.96 53.5651 35.96C54.9518 35.96 55.9918 36.2533 56.6851 36.84C57.3784 37.4266 57.7251 38.3466 57.7251 39.6C57.7251 42 56.3384 43.2 53.5651 43.2Z" fill="#F5F5F5"/>
<path d="M38.7009 43.24C37.2876 43.24 35.9676 43.0933 34.7409 42.8C33.5409 42.5333 32.4876 42.0933 31.5809 41.48C30.7009 40.8667 30.0209 40.0533 29.5409 39.04C29.0876 38 28.9009 36.7467 28.9809 35.28L34.6209 34.8C34.6742 35.68 34.8742 36.4133 35.2209 37C35.5676 37.56 36.0476 37.9733 36.6609 38.24C37.2742 38.5067 38.0209 38.64 38.9009 38.64C39.7276 38.64 40.4342 38.5067 41.0209 38.24C41.6342 37.9467 41.9409 37.4667 41.9409 36.8C41.9409 36.4533 41.8342 36.1733 41.6209 35.96C41.4076 35.72 41.0076 35.5067 40.4209 35.32C39.8609 35.1067 39.0342 34.8667 37.9409 34.6C36.5809 34.2533 35.3542 33.9067 34.2609 33.56C33.1676 33.2133 32.2342 32.8 31.4609 32.32C30.6876 31.84 30.1009 31.2533 29.7009 30.56C29.3009 29.84 29.1009 28.96 29.1009 27.92C29.1009 26.4533 29.4876 25.2133 30.2609 24.2C31.0609 23.16 32.1542 22.3733 33.5409 21.84C34.9276 21.28 36.5276 21 38.3409 21C39.9676 21 41.4876 21.2533 42.9009 21.76C44.3142 22.2667 45.4209 23.0933 46.2209 24.24C47.0476 25.3867 47.3542 26.9067 47.1409 28.8L41.6209 29.32C41.7009 28.5467 41.5942 27.8933 41.3009 27.36C41.0076 26.8 40.5809 26.3867 40.0209 26.12C39.4609 25.8267 38.7809 25.68 37.9809 25.68C37.0742 25.68 36.3676 25.8533 35.8609 26.2C35.3809 26.52 35.1409 26.9333 35.1409 27.44C35.1409 27.84 35.2876 28.1867 35.5809 28.48C35.9009 28.7467 36.3809 28.9867 37.0209 29.2C37.6876 29.3867 38.5409 29.6 39.5809 29.84C40.4876 30.0267 41.4342 30.2667 42.4209 30.56C43.4076 30.8533 44.3276 31.2533 45.1809 31.76C46.0342 32.24 46.7276 32.88 47.2609 33.68C47.7942 34.48 48.0609 35.4933 48.0609 36.72C48.0609 38.0267 47.7009 39.1733 46.9809 40.16C46.2609 41.1467 45.2076 41.9067 43.8209 42.44C42.4342 42.9733 40.7276 43.24 38.7009 43.24Z" fill="#F5F5F5"/>
<path d="M7 42.68V30.72V21.56H12.48V30.16H12.8C12.96 28.08 13.3067 26.3733 13.84 25.04C14.3733 23.68 15.1333 22.6667 16.12 22C17.1067 21.3333 18.36 21 19.88 21C22.1733 21 23.8933 21.76 25.04 23.28C26.2133 24.8 26.8 27.0667 26.8 30.08V42.68H20.32V30.92C20.32 29.48 20.0933 28.4 19.64 27.68C19.2133 26.96 18.52 26.6 17.56 26.6C16.76 26.6 16.0533 26.88 15.44 27.44C14.8267 28 14.3467 28.9067 14 30.16C13.6533 31.4133 13.48 33.0933 13.48 35.2V42.68H7Z" fill="#F5F5F5"/>
</svg>
