<svg xmlns="http://www.w3.org/2000/svg" viewBox="0 0 1120.59 513.34"><g><g><path d="M926.69,178.66a72.24,72.24,0,0,1-16,19.19q-9.72,8.27-20.09.85A109.41,109.41,0,0,0,868,186.36q-12.21-4.92-13.29-19t11.54-19.85q12.6-5.81,22.79-7.13a111,111,0,0,1,23.55-.18q13.36,1.13,16.82,14.34T926.69,178.66Z" fill="none" stroke="#fd8f8b"/><path d="M953.35,182.82C947,194,921.68,203.94,911.86,212.25s-20.2,8.89-30.82,1.32a167.39,167.39,0,0,0-34.67-18.94Q827.64,187,826,165.48T843.74,135q19.32-8.88,34.93-10.93t36.14-.29c13.67,1.17,39.28,8.5,42.81,22S959.73,171.65,953.35,182.82Z" fill="none" stroke="#fd8f8b"/><path d="M969.19,185.19c-8.25,15.09-36.05,28.63-48.92,40S893.93,237.3,880.09,227a216.36,216.36,0,0,0-45.19-25.76q-24.4-10.34-26.53-39.63t23.08-41.43Q856.64,108.1,877,105.32t47.1-.4c17.82,1.6,46,11.57,50.65,29.93S977.52,170,969.19,185.19Z" fill="none" stroke="#fd8f8b"/><path d="M992.19,188.05a186.11,186.11,0,0,1-40.85,49.69c-16.57,14.27-50.71,15-68.42,2.22a278.44,278.44,0,0,0-57.82-32q-31.26-12.79-34-49.2t29.52-51.42q32.24-15,58.32-18.46c17.39-2.29,54.48-2.45,77.28-.49s37.14,14.35,43.05,37.15S1002.85,169.18,992.19,188.05Z" fill="none" stroke="#fd8f8b"/><path d="M1017,194.61a247.55,247.55,0,0,1-54.42,66.22q-33.12,28.55-68.52,3c-23.9-17.22-66.76-31.52-94-42.63q-41.64-17-45.27-65.56T794.1,87.08q42.95-20,77.7-24.61c23.16-3.07,66.94-3.29,97.32-.65s49.51,19.12,57.38,49.5S1031.2,169.46,1017,194.61Z" fill="none" stroke="#fd8f8b"/><path d="M1053.41,208.18a326.56,326.56,0,0,1-71.75,87.32q-43.67,37.59-90.34,3.88a490,490,0,0,0-101.57-56.19c-36.6-15-73.48-43.8-76.65-86.45S727.21,84,765,66.42,853.84,38,884.39,34s65.85-4.33,105.91-.86,65.27,25.19,75.64,65.26S1072.14,175.06,1053.41,208.18Z" fill="none" stroke="#fd8f8b"/><path d="M1098.85,235.26a416.87,416.87,0,0,1-90.62,113.14q-55.68,49.2-117.9,8.28a645.76,645.76,0,0,0-134.74-67.35c-48.35-17.62-92.37-53.34-98-107.16s15.83-92.6,64.51-116.25S832,27.34,871.76,21.14s85.88-7.9,138.34-5,86.19,29.47,101.18,79.78S1122.13,192.63,1098.85,235.26Z" fill="none" stroke="#fd8f8b"/><path d="M157.94,223A35.9,35.9,0,0,1,155,228.7c-6,9.26-17.22,14.18-28.23,15-6.76.53-14.46-.75-18.43-6.26-2.06-2.85-2.8-6.43-3.4-9.9-6.17-35.84-3.72-70.71,16.46-101.29,14.5-22,78,1.88,84.36,27,5.1,18.47-19.65,26.08-32.58,36.91C163.56,198.2,162.61,211.94,157.94,223Z" fill="none" stroke="#fd8f8b"/><path d="M176.54,256.48c-7.87,25.4-39.41,38.26-64.06,35.92-8.6-.82-17.71-3.76-22.63-10.87-3-4.35-4.09-9.72-5-14.94-5.63-32.62-7.66-66.2-3.27-99.1a192.08,192.08,0,0,1,10.74-43.86C97.5,110.22,105.24,100,113,88.2c25.26-38.26,135.76,3.24,146.8,46.94,8.86,32.14-34.18,45.43-56.69,64.21C192.26,208.42,182.13,238.41,176.54,256.48Z" fill="none" stroke="#fd8f8b"/><path d="M181.9,283.84c-10.74,34.67-57.82,52.91-90.88,43.74-8.29-2.3-16.5-6.8-20.57-14.39-2-3.64-2.81-7.75-3.6-11.81C53,230.05,49.85,136.91,96.93,76.18c1.42-1.85,3.23-3.56,4.51-5.5,32-48.42,171.91,4.13,185.91,59.48,11.24,40.71-43.3,57.53-71.81,81.33C201.81,223,189,261,181.9,283.84Z" fill="none" stroke="#fd8f8b"/><path d="M190,332.41c-14.87,48.11-84.21,74.21-129,55.35-7.21-3-14.13-7.46-18.32-14.06-3.43-5.37-4.79-11.76-6-18-14.77-76.58-17.82-161,7.1-235.87A239.36,239.36,0,0,1,60.48,81.05C66.91,69.24,75.57,59.56,82.9,48.46c42.57-64.52,229,5.53,247.66,79.23,15,54.24-57.69,76.64-95.66,108.33C216.56,251.31,199.48,301.92,190,332.41Z" fill="none" stroke="#fd8f8b"/><path d="M204.88,385.72a82.26,82.26,0,0,1-8,17.94,95,95,0,0,1-12,15.85,113.91,113.91,0,0,1-15.07,13.54,134.1,134.1,0,0,1-17.45,11.11,148.31,148.31,0,0,1-75.78,17.67C57.12,461,36.33,455.36,24.34,440c-7.81-10-10.91-22.9-12.59-35.5-2.7-20.14-6-40.12-8-60.33q-1.28-13.29-2.07-26.6Q.93,304,.64,290.45t0-27.4q.28-13.71,1.18-27.46t2.46-27.31q1.54-13.51,3.81-26.93,2.23-13.24,5.26-26.33,3-12.87,6.82-25.51Q24,117.12,28.64,105q4.61-11.81,10.2-23.19c3.67-7.42,7.68-14.68,12-21.71a224.24,224.24,0,0,1,14-20q3.21-4.08,6.63-8c53-80.3,285.1,6.88,308.34,98.68,18.65,67.52-71.82,95.43-119.08,134.89C237.9,284.77,216.63,347.76,204.88,385.72Z" fill="none" stroke="#fd8f8b"/><path d="M506,405.55c-4.71-3.63-7.83-8.81-12.54-14.36s-11-11.62-13.65-19a26.26,26.26,0,0,1,2.83-23.21c4.61-6.8,12.95-11.62,21.63-12.93s17.76.74,24.95,4.23,12.46,8.47,20,11.94,17.06,5.41,24.17,10.8,11.67,14.1,8.56,20.78S568.13,395,560,398.66s-13.62,6.37-19.36,8.69-11.63,4.17-17.71,4A28.67,28.67,0,0,1,506,405.55Z" fill="none" stroke="#fd8f8b"/><path d="M488.45,440.7c-8.86-6.81-14.7-16.51-23.51-27S444.38,392,439.35,378.05a49.26,49.26,0,0,1,5.3-43.52c8.66-12.8,24.3-21.8,40.56-24.24s33.31,1.38,46.78,7.92,23.37,15.89,37.46,22.38,32,10.2,45.33,20.26,21.87,26.45,16,39-25.91,21.07-41.07,27.95-25.53,11.93-36.3,16.3-21.81,7.81-33.19,7.58A53.71,53.71,0,0,1,488.45,440.7Z" fill="none" stroke="#fd8f8b"/><path d="M463.5,471.39c-12.7-9.78-21.12-23.7-33.78-38.72S400.2,401.39,393,381.4a70.63,70.63,0,0,1,7.62-62.49c12.42-18.34,34.89-31.31,58.25-34.82,23.38-3.67,47.84,2,67.2,11.38s33.57,22.82,53.81,32.16c20.06,9.3,45.95,14.63,65.11,29.09,19,14.42,31.42,38,23,56-8.21,18-37.21,30.27-59,40.14-22,9.84-36.67,17.15-52.16,23.42-15.28,6.13-31.33,11.22-47.66,10.89A77.31,77.31,0,0,1,463.5,471.39Z" fill="none" stroke="#fd8f8b"/><path d="M446.62,493.12c-15.91-12.25-26.46-29.7-42.32-48.5s-37-39.16-46.06-64.23c-9.05-25.23-6-55.14,9.56-78.31,15.56-23,43.71-39.22,73-43.62,29.29-4.59,59.93,2.5,84.18,14.27,24.22,12,42.06,28.6,67.41,40.28,25.14,11.67,57.58,18.35,81.57,36.45,23.78,18.08,39.36,47.59,28.85,70.12-10.31,22.54-46.62,37.9-73.93,50.27-27.5,12.34-45.94,21.48-65.33,29.33-19.15,7.68-39.24,14.06-59.7,13.64C483.12,512.58,462.31,505.35,446.62,493.12Z" fill="none" stroke="#fd8f8b"/></g></g></svg>