<svg id="Layer_1" data-name="Layer 1" xmlns="http://www.w3.org/2000/svg" viewBox="0 0 21 21"><path d="M20.6,6.55,11,.15a.91.91,0,0,0-1,0L.4,6.55A.91.91,0,0,0,0,7.3v6.4a.91.91,0,0,0,.4.75l9.6,6.4a.93.93,0,0,0,1,0l9.6-6.4a.91.91,0,0,0,.4-.75V7.3a.91.91,0,0,0-.4-.75Zm-9.2-4L18.47,7.3,15.32,9.41,11.4,6.8Zm-1.8,0V6.8L5.68,9.41,2.53,7.3ZM1.8,9,4.07,10.5,1.8,12Zm7.8,9.42L2.53,13.7l3.15-2.11L9.6,14.2Zm.9-5.78L7.31,10.5,10.5,8.37l3.19,2.13Zm.9,5.78V14.2l3.91-2.61,3.16,2.11ZM19.19,12,16.93,10.5,19.2,9Z" fill="#20252b"/></svg>