<svg id="Layer_1" data-name="Layer 1" xmlns="http://www.w3.org/2000/svg" viewBox="0 0 22.02 23.32"><path d="M8.39,19.18c-5,1.49-5-2.5-7-3m14,6V18.31a3.39,3.39,0,0,0-.94-2.61c3.13-.35,6.43-1.54,6.43-7A5.44,5.44,0,0,0,19.37,5a5,5,0,0,0-.09-3.76S18.1.85,15.37,2.68a13.37,13.37,0,0,0-7,0C5.66.85,4.48,1.2,4.48,1.2A5.09,5.09,0,0,0,4.39,5a5.51,5.51,0,0,0-1.5,3.78c0,5.41,3.31,6.6,6.44,7a3.34,3.34,0,0,0-.94,2.58v3.86" fill="none" stroke="#20252b" stroke-linecap="round" stroke-linejoin="round" stroke-width="2.3"/></svg>