<svg xmlns="http://www.w3.org/2000/svg" viewBox="0 0 128 128"><style type="text/css">  
	.st0{fill:none;stroke:#20252B;stroke-width:1.25;stroke-linecap:round;stroke-linejoin:round;}
</style><line class="st0" x1="45.2" y1="27.7" x2="41.9" y2="24.6"/><line class="st0" x1="42" y1="27.8" x2="45.1" y2="24.5"/><line class="st0" x1="49" y1="75.5" x2="45.7" y2="72.4"/><line class="st0" x1="45.8" y1="75.6" x2="49" y2="72.3"/><line class="st0" x1="8.6" y1="102.2" x2="5.3" y2="99.1"/><line class="st0" x1="5.4" y1="102.3" x2="8.5" y2="99"/><line class="st0" x1="7.2" y1="23.2" x2="3.9" y2="20.1"/><line class="st0" x1="4" y1="23.3" x2="7.1" y2="20"/><line class="st0" x1="125.3" y1="27.7" x2="122" y2="24.5"/><line class="st0" x1="122.1" y1="27.7" x2="125.2" y2="24.4"/><line class="st0" x1="86.1" y1="44.6" x2="82.8" y2="41.5"/><line class="st0" x1="82.9" y1="44.7" x2="86" y2="41.4"/><line class="st0" x1="102.3" y1="81.6" x2="99" y2="78.5"/><line class="st0" x1="99.1" y1="81.7" x2="102.2" y2="78.4"/><line class="st0" x1="99.7" y1="111.7" x2="96.4" y2="108.6"/><line class="st0" x1="96.5" y1="111.8" x2="99.6" y2="108.5"/><polygon class="st0" points="69.9 32.7 67.6 28.8 65.4 32.7 63.1 36.7 67.6 36.7 72.2 36.7 "/><polygon class="st0" points="62.3 81.1 60.1 77.1 57.8 81.1 55.5 85 60.1 85 64.6 85 "/><polygon class="st0" points="88.6 95.9 86.3 91.9 84 95.9 81.7 99.9 86.3 99.9 90.9 99.9 "/><polygon class="st0" points="103.6 65.5 104.8 61.1 100.4 62.3 96 63.5 99.2 66.7 102.5 69.9 "/><polygon class="st0" points="28.5 14.3 29.7 9.9 25.3 11.1 20.9 12.3 24.1 15.5 27.3 18.7 "/><polygon class="st0" points="25.4 109.7 26.6 105.2 22.2 106.4 17.7 107.6 21 110.8 24.2 114.1 "/><polygon class="st0" points="108.3 19.2 112.2 16.9 108.3 14.7 104.3 12.4 104.3 17 104.3 21.5 "/><polygon class="st0" points="25.3 64.9 29.2 62.6 25.3 60.3 21.3 58 21.3 62.6 21.3 67.2 "/><path class="st0" d="M77.6 57.4c0 1.9-1.5 3.5-3.5 3.5s-3.5-1.5-3.5-3.5 1.5-3.5 3.5-3.5l0 0C76.1 53.9 77.6 55.5 77.6 57.4L77.6 57.4z"/><path class="st0" d="M60.1 18.7c0 1.9-1.5 3.5-3.5 3.5s-3.5-1.5-3.5-3.5 1.5-3.5 3.5-3.5C58.6 15.2 60.1 16.8 60.1 18.7 60.1 18.7 60.1 18.7 60.1 18.7z"/><path class="st0" d="M62.3 121c0 1.9-1.5 3.5-3.5 3.5 -1.9 0-3.5-1.5-3.5-3.5 0-1.9 1.5-3.5 3.5-3.5l0 0C60.8 117.5 62.3 119.1 62.3 121L62.3 121z"/><path class="st0" d="M71.6 115.8c0-1.9 1.6-3.4 3.5-3.4 1.9 0 3.3 1.5 3.4 3.4"/><path class="st0" d="M43.9 62.6c0-1.9 1.5-3.5 3.4-3.5 1.9 0 3.5 1.5 3.5 3.4 0 0.1 0 0.1 0 0.2"/><path class="st0" d="M7.5 34.4c0-1.9 1.5-3.4 3.4-3.4s3.5 1.5 3.5 3.4l0 0"/><path class="st0" d="M94.8 40.1c-1.9 0-3.4-1.5-3.5-3.4 0-1.9 1.5-3.4 3.4-3.5l0 0"/><path class="st0" d="M11.4 121c-1.9 0-3.4-1.5-3.5-3.4 0-1.9 1.5-3.4 3.4-3.5l0 0"/><path class="st0" d="M48.6 10.8c-1.9 0-3.4-1.5-3.4-3.4s1.5-3.4 3.4-3.4l0 0"/><path class="st0" d="M13.1 84.5c0 1.9-1.5 3.5-3.5 3.5s-3.5-1.5-3.5-3.5 1.5-3.5 3.5-3.5l0 0C11.6 81.1 13.1 82.6 13.1 84.5z"/><path class="st0" d="M120 88.5c0 1.9-1.5 3.5-3.5 3.5 -1.9 0-3.5-1.5-3.5-3.5s1.5-3.5 3.5-3.5l0 0C118.4 85 120 86.6 120 88.5z"/><rect x="110.4" y="33.2" class="st0" width="6.9" height="6.9"/><rect x="32.5" y="36.7" class="st0" width="6.9" height="6.9"/><rect x="32.1" y="80.7" class="st0" width="6.9" height="6.9"/><rect x="110.4" y="114.1" class="st0" width="6.9" height="6.9"/><rect x="81.8" y="3.9" class="st0" width="6.9" height="6.9"/><path class="st0" d="M71.9 74c-1.5 0-1.2-2.7-3.2-2.7"/><path class="st0" d="M78.2 74c-1.5 0-1.2-2.7-3.2-2.7"/><path class="st0" d="M71.9 74c1.5 0 1.2-2.7 3.2-2.7"/><path class="st0" d="M78.2 74c1.5 0 1.2-2.7 3.2-2.7"/><path class="st0" d="M89.9 123.6c-1.5 0-1.2-2.7-3.2-2.7"/><path class="st0" d="M96.3 123.6c-1.5 0-1.2-2.7-3.2-2.7"/><path class="st0" d="M89.9 123.6c1.5 0 1.2-2.7 3.2-2.7"/><path class="st0" d="M96.3 123.6c1.5 0 1.2-2.7 3.2-2.7"/><path class="st0" d="M98.6 52c-1.5 0-1.2-2.7-3.2-2.7"/><path class="st0" d="M104.9 52c-1.5 0-1.2-2.7-3.2-2.7"/><path class="st0" d="M98.6 52c1.5 0 1.2-2.7 3.2-2.7"/><path class="st0" d="M104.9 52c1.5 0 1.2-2.7 3.2-2.7"/><path class="st0" d="M10.5 48.8c-1.5 0-1.2-2.7-3.2-2.7"/><path class="st0" d="M16.9 48.8c-1.5 0-1.2-2.7-3.2-2.7"/><path class="st0" d="M10.5 48.8c1.5 0 1.2-2.7 3.2-2.7"/><path class="st0" d="M16.9 48.8c1.5 0 1.2-2.7 3.2-2.7"/><path class="st0" d="M72.4 13.1c0 1.5-2.7 1.2-2.7 3.2"/><path class="st0" d="M72.4 6.7c0 1.5-2.7 1.2-2.7 3.2"/><path class="st0" d="M72.4 13.1c0-1.5-2.7-1.2-2.7-3.2"/><path class="st0" d="M72.4 6.7c0-1.5-2.7-1.2-2.7-3.2"/><path class="st0" d="M53 46.2c0 1.5-2.7 1.2-2.7 3.2"/><path class="st0" d="M53 39.8c0 1.5-2.7 1.2-2.7 3.2"/><path class="st0" d="M53 46.2c0-1.5-2.7-1.2-2.7-3.2"/><path class="st0" d="M53 39.8c0-1.5-2.7-1.2-2.7-3.2"/><path class="st0" d="M105.6 99.1c0 1.5-2.7 1.2-2.7 3.2"/><path class="st0" d="M105.6 92.7c0 1.5-2.7 1.2-2.7 3.2"/><path class="st0" d="M105.6 99.1c0-1.5-2.7-1.2-2.7-3.2"/><path class="st0" d="M105.6 92.7c0-1.5-2.7-1.2-2.7-3.2"/><path class="st0" d="M40.4 104.1c0 1.5-2.7 1.2-2.7 3.2"/><path class="st0" d="M40.4 97.7c0 1.5-2.7 1.2-2.7 3.2"/><path class="st0" d="M40.4 104.1c0-1.5-2.7-1.2-2.7-3.2"/><path class="st0" d="M40.4 97.7c0-1.5-2.7-1.2-2.7-3.2"/><line class="st0" x1="79.5" y1="81.1" x2="87.3" y2="81.1"/><line class="st0" x1="2.7" y1="58.5" x2="10.5" y2="58.5"/><line class="st0" x1="80.1" y1="22.2" x2="87.9" y2="22.2"/><line class="st0" x1="110.9" y1="4.5" x2="118.7" y2="4.5"/><line class="st0" x1="33.8" y1="121" x2="41.7" y2="121"/><line class="st0" x1="53.9" y1="105.9" x2="59.4" y2="100.4"/><line class="st0" x1="8.2" y1="10.1" x2="13.7" y2="4.5"/><line class="st0" x1="114.8" y1="66.7" x2="120.3" y2="61.2"/><path class="st0" d="M73.8 99.6c-0.6 0.4-1.5 0.2-1.9-0.4 -0.4-0.6-0.2-1.5 0.4-1.9 0.6-0.4 1.5-0.2 1.9 0.4C74.6 98.3 74.5 99.1 73.8 99.6L73.8 99.6z"/><path class="st0" d="M63.1 62c-0.6 0.4-1.5 0.2-1.9-0.4 -0.4-0.6-0.2-1.5 0.4-1.9 0.6-0.4 1.5-0.2 1.9 0.4C63.9 60.8 63.7 61.6 63.1 62 63.1 62 63.1 62 63.1 62z"/><path class="st0" d="M13.9 73.6c-0.6 0.4-1.5 0.2-1.9-0.4 -0.4-0.6-0.2-1.5 0.4-1.9 0.6-0.4 1.5-0.2 1.9 0.4C14.7 72.3 14.5 73.1 13.9 73.6L13.9 73.6z"/><path class="st0" d="M27.9 30.6c-0.6 0.4-1.5 0.2-1.9-0.4 -0.4-0.6-0.2-1.5 0.4-1.9 0.6-0.4 1.5-0.2 1.9 0.4C28.7 29.4 28.5 30.2 27.9 30.6L27.9 30.6z"/><path class="st0" d="M102.9 29.9c-0.6 0.4-1.5 0.2-1.9-0.4 -0.4-0.6-0.2-1.5 0.4-1.9 0.6-0.4 1.5-0.2 1.9 0.4C103.8 28.7 103.6 29.5 102.9 29.9L102.9 29.9z"/><path class="st0" d="M122.2 78.5c-0.6 0.4-1.5 0.2-1.9-0.4s-0.2-1.5 0.4-1.9c0.6-0.4 1.5-0.2 1.9 0.4C123.1 77.3 122.9 78.1 122.2 78.5L122.2 78.5z"/></svg>
 