<svg  xmlns="http://www.w3.org/2000/svg" viewBox="0 0 24 24" fill="currentColor">
  <path d="M24 8.5732C24 8.76809 23.9225 8.955 23.7846 9.09281C23.6466 9.23062 23.4596 9.30804 23.2645 9.30804H21.058V11.5126C21.058 11.7075 20.9805 11.8944 20.8426 12.0322C20.7046 12.17 20.5175 12.2474 20.3225 12.2474C20.1274 12.2474 19.9403 12.17 19.8024 12.0322C19.6645 11.8944 19.587 11.7075 19.587 11.5126V9.30804H17.3805C17.1854 9.30804 16.9983 9.23062 16.8604 9.09281C16.7224 8.955 16.645 8.76809 16.645 8.5732C16.645 8.3783 16.7224 8.19139 16.8604 8.05358C16.9983 7.91577 17.1854 7.83835 17.3805 7.83835H19.587V5.63382C19.587 5.43892 19.6645 5.25201 19.8024 5.1142C19.9403 4.97639 20.1274 4.89897 20.3225 4.89897C20.5175 4.89897 20.7046 4.97639 20.8426 5.1142C20.9805 5.25201 21.058 5.43892 21.058 5.63382V7.83835H23.2645C23.4596 7.83835 23.6466 7.91577 23.7846 8.05358C23.9225 8.19139 24 8.3783 24 8.5732ZM13.478 3.42928H14.7038V4.65402C14.7038 4.84891 14.7813 5.03582 14.9193 5.17364C15.0572 5.31145 15.2443 5.38887 15.4393 5.38887C15.6344 5.38887 15.8215 5.31145 15.9594 5.17364C16.0973 5.03582 16.1748 4.84891 16.1748 4.65402V3.42928H17.4007C17.5957 3.42928 17.7828 3.35186 17.9208 3.21405C18.0587 3.07624 18.1362 2.88933 18.1362 2.69443C18.1362 2.49954 18.0587 2.31263 17.9208 2.17482C17.7828 2.03701 17.5957 1.95959 17.4007 1.95959H16.1748V0.734845C16.1748 0.539952 16.0973 0.353041 15.9594 0.215231C15.8215 0.0774209 15.6344 0 15.4393 0C15.2443 0 15.0572 0.0774209 14.9193 0.215231C14.7813 0.353041 14.7038 0.539952 14.7038 0.734845V1.95959H13.478C13.2829 1.95959 13.0958 2.03701 12.9579 2.17482C12.82 2.31263 12.7425 2.49954 12.7425 2.69443C12.7425 2.88933 12.82 3.07624 12.9579 3.21405C13.0958 3.35186 13.2829 3.42928 13.478 3.42928ZM22.2121 15.711C22.2977 15.8106 22.355 15.9313 22.378 16.0605C22.4011 16.1898 22.3891 16.3228 22.3433 16.4458C21.6777 18.262 20.5649 19.8813 19.1076 21.1543C17.6503 22.4274 15.8955 23.3131 14.0051 23.7297C12.1148 24.1463 10.1499 24.0804 8.29175 23.5381C6.43363 22.9958 4.74221 21.9945 3.37363 20.6267C2.00505 19.2589 1.00343 17.5687 0.461231 15.712C-0.0809689 13.8554 -0.146271 11.8922 0.271354 10.0037C0.688979 8.1152 1.57607 6.36225 2.85073 4.90668C4.1254 3.45111 5.74655 2.33984 7.56453 1.67545C7.68694 1.63095 7.81898 1.61973 7.94716 1.64293C8.07533 1.66614 8.19504 1.72294 8.29404 1.80752C8.39304 1.8921 8.46778 2.00144 8.51061 2.12435C8.55345 2.24725 8.56285 2.37932 8.53785 2.50705C8.22264 4.10535 8.26549 5.75355 8.66333 7.33334C9.06116 8.91314 9.80411 10.3853 10.8389 11.6443C11.8736 12.9033 13.1745 13.9177 14.6481 14.6149C16.1217 15.3121 17.7315 15.6747 19.362 15.6767C20.0834 15.677 20.8031 15.6072 21.5109 15.4685C21.6388 15.4432 21.7712 15.4523 21.8944 15.4949C22.0176 15.5375 22.1272 15.6121 22.2121 15.711ZM20.4506 17.0999C20.0894 17.1309 19.7265 17.1464 19.362 17.1464C16.0471 17.1425 12.869 15.8251 10.525 13.4832C8.18092 11.1412 6.86234 7.96601 6.85844 4.65402C6.85844 4.29068 6.87397 3.92816 6.90502 3.56645C5.50038 4.29201 4.28688 5.33842 3.36313 6.62065C2.43937 7.90289 1.83142 9.38477 1.58868 10.9459C1.34594 12.507 1.47526 14.1033 1.96612 15.6051C2.45699 17.1069 3.29555 18.4718 4.41367 19.589C5.5318 20.7061 6.89794 21.5439 8.40109 22.0343C9.90423 22.5247 11.502 22.654 13.0645 22.4114C14.627 22.1689 16.1102 21.5615 17.3936 20.6386C18.677 19.7157 19.7244 18.5032 20.4506 17.0999Z" />
</svg>