<svg width="16" height="16" viewBox="0 0 16 16" fill="none" xmlns="http://www.w3.org/2000/svg">
<path d="M12.2156 9.32812C12.2156 9.32812 12.2156 9.33125 12.2188 9.33125C12.5062 9.9375 12.6687 10.6156 12.6687 11.3313C12.6656 13.9094 10.5781 16 8 16C5.42188 16 3.33437 13.9094 3.33437 11.3344C3.33437 10.6188 3.49687 9.94063 3.78437 9.33438C3.8375 9.22188 3.89687 9.10938 3.95937 9C4.09687 8.7625 4.25312 8.54063 4.42812 8.33438C5.28437 7.31563 6.56875 6.66875 8.00313 6.66875C9.05313 6.66875 10.0219 7.01563 10.8031 7.60313C11.0875 7.81875 11.3469 8.0625 11.5781 8.3375C11.7531 8.54375 11.9094 8.76875 12.0469 9.00313C12.1094 9.10938 12.1656 9.22188 12.2188 9.33125L12.2156 9.32812ZM13.0406 8.74063C12.1 6.91563 10.1969 5.66563 8 5.66563C5.80312 5.66563 3.9 6.91563 2.95937 8.74063L0 6.33437L8 0L16 6.33437L13.0406 8.74375V8.74063Z" fill="black"/>
</svg>
